<svg width="95" height="97" viewBox="0 0 95 97" fill="none" xmlns="http://www.w3.org/2000/svg">
<path d="M84.9175 47.7496L92.3995 60.7188C93.9002 63.3224 94.69 66.276 94.6896 69.2824C94.6892 72.2888 93.8986 75.2422 92.3972 77.8454C90.8958 80.4486 88.7367 82.61 86.1369 84.1121C83.537 85.6143 80.5882 86.4043 77.5869 86.4026H67.5262V96.187L43.1071 79.0644L67.5262 61.9418V71.7261H77.5967C77.9879 71.7262 78.3735 71.6321 78.7209 71.4517C79.0682 71.2713 79.3672 71.0099 79.5927 70.6896C79.8182 70.3693 79.9635 69.9994 80.0165 69.611C80.0694 69.2227 80.0284 68.8273 79.897 68.4582L79.7114 68.057L72.2391 55.083L84.9175 47.7496ZM27.1663 34.4674L29.7596 64.2118L21.3057 59.3196L16.2656 68.057C16.0698 68.3964 15.9583 68.778 15.9405 69.1696C15.9227 69.5612 15.9991 69.9513 16.1633 70.3072C16.3275 70.663 16.5747 70.9741 16.884 71.2142C17.1934 71.4543 17.5558 71.6165 17.9407 71.687L18.3803 71.7261H33.3394V86.4026H18.3803C15.3798 86.4026 12.4322 85.6113 9.83371 84.1085C7.23524 82.6056 5.07747 80.4441 3.57726 77.8412C2.07706 75.2382 1.28727 72.2855 1.28729 69.2799C1.28731 66.2743 2.07713 63.3217 3.57737 60.7188L8.61748 51.9813L0.153809 47.0892L27.1663 34.4674ZM56.5376 3.089C59.1335 4.59109 61.2894 6.75065 62.7889 9.35098L67.8241 18.0884L76.2878 13.1962L73.6896 42.9406L46.682 30.3188L55.1311 25.4266L50.1007 16.6892C49.9052 16.3497 49.631 16.0623 49.3014 15.8511C48.9718 15.6399 48.5964 15.5111 48.2067 15.4757C47.817 15.4402 47.4246 15.499 47.0623 15.6472C46.7001 15.7954 46.3787 16.0286 46.1253 16.3272L45.8713 16.6892L38.3991 29.6633L25.7109 22.325L33.1831 9.35098C34.306 7.40351 35.8007 5.69669 37.5822 4.32799C39.3636 2.95929 41.3967 1.95553 43.5655 1.37403C45.7342 0.792536 47.996 0.644695 50.2218 0.938952C52.4476 1.23321 54.5937 1.9638 56.5376 3.089Z" fill="#F2FF58"/>
</svg>
