<svg width="288" height="288" viewBox="0 0 288 288" fill="none" xmlns="http://www.w3.org/2000/svg">
<path d="M84 204L122.4 122.4L204 84L165.6 165.6L84 204ZM144 133.2C141.136 133.2 138.389 134.338 136.363 136.363C134.338 138.389 133.2 141.136 133.2 144C133.2 146.864 134.338 149.611 136.363 151.637C138.389 153.662 141.136 154.8 144 154.8C146.864 154.8 149.611 153.662 151.637 151.637C153.662 149.611 154.8 146.864 154.8 144C154.8 141.136 153.662 138.389 151.637 136.363C149.611 134.338 146.864 133.2 144 133.2ZM144 24C159.759 24 175.363 27.1039 189.922 33.1345C204.481 39.165 217.71 48.0042 228.853 59.1472C239.996 70.2902 248.835 83.5189 254.866 98.078C260.896 112.637 264 128.241 264 144C264 175.826 251.357 206.348 228.853 228.853C206.348 251.357 175.826 264 144 264C128.241 264 112.637 260.896 98.078 254.866C83.5189 248.835 70.2902 239.996 59.1472 228.853C36.6428 206.348 24 175.826 24 144C24 112.174 36.6428 81.6516 59.1472 59.1472C81.6516 36.6428 112.174 24 144 24ZM144 48C118.539 48 94.1212 58.1143 76.1178 76.1178C58.1143 94.1212 48 118.539 48 144C48 169.461 58.1143 193.879 76.1178 211.882C94.1212 229.886 118.539 240 144 240C169.461 240 193.879 229.886 211.882 211.882C229.886 193.879 240 169.461 240 144C240 118.539 229.886 94.1212 211.882 76.1178C193.879 58.1143 169.461 48 144 48Z" fill="#F2FF58"/>
</svg>
