<svg width="288" height="288" viewBox="0 0 288 288" fill="none" xmlns="http://www.w3.org/2000/svg">
<path d="M180 252L108 226.8L52.2 248.4C48.2 250 44.5 249.552 41.1 247.056C37.7 244.56 36 241.208 36 237V69C36 66.4 36.752 64.1 38.256 62.1C39.76 60.1 41.808 58.6 44.4 57.6L108 36L180 61.2L235.8 39.6C239.8 38 243.5 38.452 246.9 40.956C250.3 43.46 252 46.808 252 51V219C252 221.6 251.252 223.9 249.756 225.9C248.26 227.9 246.208 229.4 243.6 230.4L180 252ZM168 222.6V82.2L120 65.4V205.8L168 222.6ZM192 222.6L228 210.6V68.4L192 82.2V222.6ZM60 219.6L96 205.8V65.4L60 77.4V219.6Z" fill="#F2FF58"/>
</svg>
