<svg width="288" height="288" viewBox="0 0 288 288" fill="none" xmlns="http://www.w3.org/2000/svg">
<g clip-path="url(#clip0_340_465)">
<path d="M144 0C146.728 0 149.344 1.08367 151.273 3.01262C153.202 4.94156 154.286 7.55777 154.286 10.2857V30.8571C154.286 33.5851 153.202 36.2013 151.273 38.1302C149.344 40.0592 146.728 41.1429 144 41.1429C141.272 41.1429 138.656 40.0592 136.727 38.1302C134.798 36.2013 133.714 33.5851 133.714 30.8571V10.2857C133.714 7.55777 134.798 4.94156 136.727 3.01262C138.656 1.08367 141.272 0 144 0ZM144 216C163.096 216 181.409 208.414 194.912 194.912C208.414 181.409 216 163.096 216 144C216 124.904 208.414 106.591 194.912 93.0883C181.409 79.5857 163.096 72 144 72C124.904 72 106.591 79.5857 93.0883 93.0883C79.5857 106.591 72 124.904 72 144C72 163.096 79.5857 181.409 93.0883 194.912C106.591 208.414 124.904 216 144 216ZM144 195.429C130.36 195.429 117.279 190.01 107.635 180.365C97.9898 170.721 92.5714 157.64 92.5714 144C92.5714 130.36 97.9898 117.279 107.635 107.635C117.279 97.9898 130.36 92.5714 144 92.5714C157.64 92.5714 170.721 97.9898 180.365 107.635C190.01 117.279 195.429 130.36 195.429 144C195.429 157.64 190.01 170.721 180.365 180.365C170.721 190.01 157.64 195.429 144 195.429ZM277.714 154.286C280.442 154.286 283.058 153.202 284.987 151.273C286.916 149.344 288 146.728 288 144C288 141.272 286.916 138.656 284.987 136.727C283.058 134.798 280.442 133.714 277.714 133.714H257.143C254.415 133.714 251.799 134.798 249.87 136.727C247.941 138.656 246.857 141.272 246.857 144C246.857 146.728 247.941 149.344 249.87 151.273C251.799 153.202 254.415 154.286 257.143 154.286H277.714ZM144 246.857C146.728 246.857 149.344 247.941 151.273 249.87C153.202 251.799 154.286 254.415 154.286 257.143V277.714C154.286 280.442 153.202 283.058 151.273 284.987C149.344 286.916 146.728 288 144 288C141.272 288 138.656 286.916 136.727 284.987C134.798 283.058 133.714 280.442 133.714 277.714V257.143C133.714 254.415 134.798 251.799 136.727 249.87C138.656 247.941 141.272 246.857 144 246.857ZM30.8571 154.286C33.5851 154.286 36.2013 153.202 38.1302 151.273C40.0592 149.344 41.1429 146.728 41.1429 144C41.1429 141.272 40.0592 138.656 38.1302 136.727C36.2013 134.798 33.5851 133.714 30.8571 133.714H10.2857C7.55777 133.714 4.94156 134.798 3.01262 136.727C1.08367 138.656 0 141.272 0 144C0 146.728 1.08367 149.344 3.01262 151.273C4.94156 153.202 7.55777 154.286 10.2857 154.286H30.8571ZM33.8811 33.8811C35.81 31.9529 38.4257 30.8696 41.1531 30.8696C43.8805 30.8696 46.4963 31.9529 48.4251 33.8811L68.9966 54.4526C69.979 55.4014 70.7625 56.5364 71.3016 57.7913C71.8407 59.0462 72.1244 60.3959 72.1363 61.7616C72.1482 63.1273 71.8879 64.4817 71.3707 65.7458C70.8536 67.0099 70.0898 68.1583 69.1241 69.1241C68.1583 70.0898 67.0099 70.8536 65.7458 71.3707C64.4817 71.8879 63.1273 72.1482 61.7616 72.1363C60.3959 72.1244 59.0462 71.8407 57.7913 71.3016C56.5364 70.7625 55.4014 69.979 54.4526 68.9966L33.8811 48.4251C31.9529 46.4963 30.8696 43.8805 30.8696 41.1531C30.8696 38.4257 31.9529 35.81 33.8811 33.8811ZM48.4251 254.139C46.4852 256.013 43.887 257.05 41.1902 257.026C38.4933 257.003 35.9135 255.921 34.0064 254.014C32.0994 252.107 31.0176 249.527 30.9942 246.83C30.9708 244.134 32.0075 241.535 33.8811 239.595L54.4526 219.024C55.4014 218.042 56.5364 217.258 57.7913 216.719C59.0462 216.18 60.3959 215.896 61.7616 215.884C63.1273 215.872 64.4817 216.133 65.7458 216.65C67.0099 217.167 68.1583 217.931 69.1241 218.897C70.0898 219.862 70.8536 221.011 71.3707 222.275C71.8879 223.539 72.1482 224.893 72.1363 226.259C72.1244 227.625 71.8407 228.974 71.3016 230.229C70.7625 231.484 69.979 232.619 68.9966 233.568L48.4251 254.139ZM254.139 33.8811C252.211 31.9529 249.595 30.8696 246.867 30.8696C244.14 30.8696 241.524 31.9529 239.595 33.8811L219.024 54.4526C217.15 56.3925 216.114 58.9907 216.137 61.6876C216.161 64.3844 217.242 66.9642 219.149 68.8713C221.056 70.7783 223.636 71.8601 226.333 71.8835C229.03 71.9069 231.628 70.8702 233.568 68.9966L254.139 48.4251C256.068 46.4963 257.151 43.8805 257.151 41.1531C257.151 38.4257 256.068 35.81 254.139 33.8811ZM239.595 254.139C241.535 256.013 244.134 257.05 246.83 257.026C249.527 257.003 252.107 255.921 254.014 254.014C255.921 252.107 257.003 249.527 257.026 246.83C257.05 244.134 256.013 241.535 254.139 239.595L233.568 219.024C232.619 218.042 231.484 217.258 230.229 216.719C228.974 216.18 227.625 215.896 226.259 215.884C224.893 215.872 223.539 216.133 222.275 216.65C221.011 217.167 219.862 217.931 218.897 218.897C217.931 219.862 217.167 221.011 216.65 222.275C216.133 223.539 215.872 224.893 215.884 226.259C215.896 227.625 216.18 228.974 216.719 230.229C217.258 231.484 218.042 232.619 219.024 233.568L239.595 254.139Z" fill="#F2FF58"/>
</g>
<defs>
<clipPath id="clip0_340_465">
<rect width="288" height="288" fill="white"/>
</clipPath>
</defs>
</svg>
