<svg width="92" height="72" viewBox="0 0 92 72" fill="none" xmlns="http://www.w3.org/2000/svg">
<path d="M67.7106 26.3617H56.716V7.75343C56.716 6.73524 56.5129 5.72701 56.1182 4.78632C55.7236 3.84563 55.1451 2.9909 54.4159 2.27093C53.6866 1.55095 52.8209 0.97984 51.8681 0.590194C50.9153 0.200548 49.8941 0 48.8627 0H4.88434C4.12 0.000196478 3.36719 0.183962 2.69082 0.535447C2.01446 0.886932 1.43486 1.39558 1.00201 2.01753C0.569151 2.63948 0.29604 3.35605 0.206231 4.10544C0.116421 4.85483 0.212607 5.61454 0.486495 6.31905C4.75868 17.325 3.74561 36.697 0.356915 48.3349C0.23469 48.7533 0.172566 49.1865 0.172363 49.622V63.5781C0.172363 65.6345 0.999761 67.6066 2.47254 69.0606C3.94532 70.5147 5.94283 71.3316 8.02565 71.3316H18.2781C19.5044 71.3328 20.7142 71.0528 21.8121 70.5136L26.4141 68.2302H32.0449L36.6666 70.5136C37.7645 71.0528 38.9743 71.3328 40.2006 71.3316H51.2816C52.5012 71.3298 53.7039 71.0499 54.7959 70.5136L59.3979 68.2302H65.0287L69.6504 70.5136C70.7424 71.0499 71.9451 71.3298 73.1647 71.3316H83.4172C85.5 71.3316 87.4976 70.5147 88.9703 69.0606C90.4431 67.6066 91.2705 65.6345 91.2705 63.5781V49.622C91.2632 43.4551 88.7787 37.543 84.3619 33.1824C79.9452 28.8218 73.9569 26.3688 67.7106 26.3617ZM11.167 9.30412H47.2921V26.3617H37.8681C36.6185 26.3617 35.4199 26.8518 34.5363 27.7242C33.6526 28.5966 33.1562 29.7799 33.1562 31.0137C33.1562 32.2475 33.6526 33.4308 34.5363 34.3032C35.4199 35.1757 36.6185 35.6658 37.8681 35.6658H67.7106C70.6328 35.6698 73.4823 36.5662 75.8682 38.2319C78.2541 39.8976 80.0598 42.2512 81.0377 44.9699H10.8568C13.0321 34.1461 13.6133 20.3179 11.167 9.30412ZM81.8466 62.0274H73.5339L68.9122 59.7441C67.8202 59.2078 66.6175 58.9278 65.3978 58.9261H59.0288C57.8092 58.9278 56.6065 59.2078 55.5145 59.7441L50.8928 62.0274H40.55L35.9284 59.7441C34.8305 59.2048 33.6207 58.9248 32.3944 58.9261H26.045C24.8188 58.9248 23.609 59.2048 22.511 59.7441L17.909 62.0274H9.59631V54.274H81.8466V62.0274Z" fill="#F2FF58"/>
</svg>
