<svg width="98" height="89" viewBox="0 0 98 89" fill="none" xmlns="http://www.w3.org/2000/svg">
<path d="M66.789 21.9871H66.8338M10.2789 71.3213H48.8493C58.3651 71.3213 67.4911 67.5411 74.2198 60.8124C80.9485 54.0838 84.7287 44.9577 84.7287 35.4419V21.9871C84.7388 18.1655 83.5282 14.4406 81.2735 11.3551C79.0187 8.26956 75.8375 5.9847 72.1935 4.83342C68.5494 3.68215 64.633 3.72463 61.0148 4.95468C57.3966 6.18473 54.2657 8.53806 52.0784 11.6718L4 80.2911" stroke="#F2FF58" stroke-width="7.73475" stroke-linecap="round" stroke-linejoin="round"/>
<path d="M84.7288 21.9873L93.6987 24.2298L84.7288 26.4722M39.8796 71.3215V84.7763M57.8193 70.2003V84.7763M26.4248 71.3215C31.9553 71.3212 37.3513 69.6169 41.8786 66.4406C46.406 63.2643 49.8447 58.7701 51.7268 53.5698C53.6089 48.3695 53.843 42.7155 52.3973 37.3774C50.9515 32.0392 47.8961 27.2762 43.6469 23.7364" stroke="#F2FF58" stroke-width="7.73475" stroke-linecap="round" stroke-linejoin="round"/>
</svg>
