<svg width="288" height="288" viewBox="0 0 288 288" fill="none" xmlns="http://www.w3.org/2000/svg">
<path d="M144 28.8C134.452 28.8 125.295 32.5929 118.544 39.3442C111.793 46.0955 108 55.2523 108 64.8V65.4336C92.9577 72.3283 80.2117 83.3974 71.2771 97.325C62.3426 111.253 57.5954 127.453 57.6 144V216C57.6 227.457 62.1514 238.445 70.253 246.547C78.3545 254.649 89.3426 259.2 100.8 259.2H147.701C144.033 254.758 140.861 249.93 138.24 244.8H100.8C93.1617 244.8 85.8363 241.766 80.4353 236.365C75.0343 230.964 72 223.638 72 216V187.2H100.8V208.8C100.8 210.71 101.559 212.541 102.909 213.891C104.259 215.241 106.09 216 108 216C109.91 216 111.741 215.241 113.091 213.891C114.441 212.541 115.2 210.71 115.2 208.8V187.2H132.581C134.011 182.17 135.898 177.37 138.24 172.8H72V144C71.9824 126.126 78.6138 108.884 90.6044 95.629C102.595 82.3735 119.087 74.0519 136.874 72.2828C154.66 70.5137 172.468 75.4236 186.835 86.0574C201.202 96.6913 211.1 112.289 214.603 129.816C219.768 130.19 224.774 131.04 229.622 132.365C227.664 117.93 222.088 104.224 213.412 92.5225C204.737 80.8206 193.243 71.5022 180 65.4336V64.8C180 55.2523 176.207 46.0955 169.456 39.3442C162.705 32.5929 153.548 28.8 144 28.8ZM144 57.6C136.883 57.5913 129.793 58.4619 122.89 60.192C123.934 55.3695 126.599 51.0501 130.439 47.9522C134.28 44.8544 139.066 43.1649 144 43.1649C148.934 43.1649 153.72 44.8544 157.561 47.9522C161.401 51.0501 164.066 55.3695 165.11 60.192C158.342 58.5072 151.286 57.6 144 57.6ZM163.253 144C170.05 139.217 177.558 135.533 185.501 133.085C186.595 130.709 187.2 128.059 187.2 125.28C187.2 118.788 184.621 112.561 180.03 107.97C175.439 103.379 169.212 100.8 162.72 100.8H125.28C118.787 100.8 112.561 103.379 107.97 107.97C103.379 112.561 100.8 118.788 100.8 125.28C100.8 127.738 101.284 130.173 102.225 132.444C103.166 134.715 104.545 136.779 106.283 138.517C108.021 140.255 110.085 141.634 112.356 142.575C114.627 143.516 117.062 144 119.52 144H163.253ZM115.2 125.28C115.2 122.607 116.262 120.043 118.152 118.152C120.043 116.262 122.607 115.2 125.28 115.2H162.72C165.393 115.2 167.957 116.262 169.848 118.152C171.738 120.043 172.8 122.607 172.8 125.28C172.8 126.426 172.345 127.525 171.535 128.335C170.725 129.145 169.626 129.6 168.48 129.6H119.52C118.374 129.6 117.275 129.145 116.465 128.335C115.655 127.525 115.2 126.426 115.2 125.28ZM273.6 208.8C273.6 225.986 266.773 242.468 254.62 254.621C242.468 266.773 225.986 273.6 208.8 273.6C191.614 273.6 175.132 266.773 162.979 254.621C150.827 242.468 144 225.986 144 208.8C144 191.614 150.827 175.132 162.979 162.98C175.132 150.827 191.614 144 208.8 144C225.986 144 242.468 150.827 254.62 162.98C266.773 175.132 273.6 191.614 273.6 208.8ZM216 180C216 178.09 215.241 176.259 213.891 174.909C212.541 173.559 210.71 172.8 208.8 172.8C206.89 172.8 205.059 173.559 203.709 174.909C202.359 176.259 201.6 178.09 201.6 180V201.6H180C178.09 201.6 176.259 202.359 174.909 203.709C173.559 205.059 172.8 206.89 172.8 208.8C172.8 210.71 173.559 212.541 174.909 213.891C176.259 215.241 178.09 216 180 216H201.6V237.6C201.6 239.51 202.359 241.341 203.709 242.691C205.059 244.041 206.89 244.8 208.8 244.8C210.71 244.8 212.541 244.041 213.891 242.691C215.241 241.341 216 239.51 216 237.6V216H237.6C239.51 216 241.341 215.241 242.691 213.891C244.041 212.541 244.8 210.71 244.8 208.8C244.8 206.89 244.041 205.059 242.691 203.709C241.341 202.359 239.51 201.6 237.6 201.6H216V180Z" fill="#F2FF58"/>
</svg>
