<svg width="288" height="288" viewBox="0 0 288 288" fill="none" xmlns="http://www.w3.org/2000/svg">
<path d="M162.09 27H134.46C129.037 26.9982 123.714 28.4637 119.055 31.2412C114.397 34.0188 110.577 38.0048 108 42.777V135.99H189.144V44.118C186.714 38.999 182.883 34.6737 178.094 31.6439C173.306 28.6141 167.756 27.0039 162.09 27ZM168.12 106.83H159.39V115.56C159.39 118.496 158.224 121.312 156.148 123.388C154.072 125.464 151.256 126.63 148.32 126.63C145.384 126.63 142.568 125.464 140.492 123.388C138.416 121.312 137.25 118.496 137.25 115.56V106.83H128.52C122.58 106.83 117.738 102.168 117.468 96.291C117.572 93.4205 118.779 90.7007 120.838 88.6975C122.896 86.6943 125.648 85.5619 128.52 85.536H137.25V76.626C137.25 70.371 142.2 65.322 148.32 65.322C154.44 65.322 159.39 70.371 159.39 76.626V85.536H168.12C174.06 85.536 178.902 90.378 179.181 96.291C179.045 99.1324 177.82 101.812 175.76 103.775C173.701 105.737 170.965 106.831 168.12 106.83ZM241.11 135.99H198.144V46.179C222.84 53.064 241.038 76.149 241.11 103.527V135.99ZM99 135.99V45.99C73.908 52.632 55.44 75.897 55.44 103.527V135.972L99 135.99ZM54.81 144.54H241.56C252 144.54 260.37 152.91 260.37 163.35C260.37 173.7 251.91 182.16 241.56 182.16H223.668V198.27C223.668 215.262 218.052 230.94 208.566 243.558C209.727 247.581 208.728 252.099 205.569 255.276C198.068 262.85 189.138 268.86 179.297 272.957C169.455 277.054 158.899 279.157 148.239 279.144C137.588 279.135 127.044 277.025 117.21 272.935C107.375 268.846 98.444 262.857 90.927 255.312C89.4194 253.801 88.3433 251.915 87.81 249.848C87.2767 247.781 87.3057 245.61 87.894 243.558C78.0714 230.505 72.7698 214.606 72.792 198.27V182.16H54.81C44.46 182.16 36 173.7 36 163.35C36 153 44.46 144.54 54.81 144.54ZM210.672 198.27V182.16H85.788V198.27C85.788 212.022 90.234 224.73 97.767 235.044C101.331 234.567 105.057 235.701 107.793 238.437C113.092 243.769 119.392 248.002 126.331 250.891C133.271 253.781 140.713 255.271 148.23 255.276C164.016 255.276 178.281 248.886 188.64 238.464C191.367 235.71 195.12 234.567 198.693 235.044C206.495 224.373 210.689 211.49 210.663 198.27" fill="#F2FF58"/>
</svg>
