<svg width="92" height="92" viewBox="0 0 92 92" fill="none" xmlns="http://www.w3.org/2000/svg">
<path d="M39.8557 61.3941L25.6216 47.1571L29.6441 43.1346L39.8557 53.3433L61.4488 31.7473L65.477 35.7756L39.8557 61.3941Z" fill="#F2FF58"/>
<path d="M45.5493 6.12598C37.6666 6.12598 29.961 8.46346 23.4068 12.8428C16.8526 17.2222 11.7442 23.4468 8.72768 30.7294C5.71112 38.012 4.92185 46.0256 6.45968 53.7568C7.99751 61.488 11.7934 68.5896 17.3673 74.1635C22.9411 79.7373 30.0427 83.5332 37.7739 85.071C45.5051 86.6089 53.5187 85.8196 60.8013 82.803C68.0839 79.7865 74.3085 74.6781 78.6879 68.1239C83.0673 61.5697 85.4047 53.8641 85.4047 45.9814C85.4047 35.4111 81.2057 25.2737 73.7314 17.7994C66.257 10.325 56.1196 6.12598 45.5493 6.12598ZM45.5493 80.1432C38.7927 80.1432 32.1879 78.1397 26.57 74.3859C20.9521 70.6322 16.5735 65.2968 13.9879 59.0546C11.4023 52.8123 10.7258 45.9435 12.0439 39.3168C13.362 32.69 16.6156 26.603 21.3933 21.8254C26.1709 17.0478 32.2579 13.7942 38.8847 12.476C45.5114 11.1579 52.3802 11.8344 58.6225 14.42C64.8647 17.0056 70.2001 21.3843 73.9538 27.0021C77.7075 32.62 79.7111 39.2248 79.7111 45.9814C79.7111 55.0417 76.1119 63.7309 69.7053 70.1375C63.2988 76.544 54.6096 80.1432 45.5493 80.1432Z" fill="#F2FF58"/>
</svg>
