<svg width="81" height="90" viewBox="0 0 81 90" fill="none" xmlns="http://www.w3.org/2000/svg">
<path d="M4.32617 22.3116H76.5172M31.3978 40.2639V67.1923M49.4455 40.2639V67.1923M8.83811 22.3116L13.35 76.1684C13.35 78.549 14.3008 80.8321 15.9931 82.5155C17.6854 84.1988 19.9806 85.1445 22.3739 85.1445H58.4694C60.8627 85.1445 63.1579 84.1988 64.8502 82.5155C66.5426 80.8321 67.4933 78.549 67.4933 76.1684L72.0052 22.3116M26.8859 22.3116V8.84744C26.8859 7.65713 27.3612 6.51557 28.2074 5.6739C29.0535 4.83222 30.2011 4.35938 31.3978 4.35938H49.4455C50.6422 4.35938 51.7898 4.83222 52.636 5.6739C53.4821 6.51557 53.9575 7.65713 53.9575 8.84744V22.3116" stroke="#F2FF58" stroke-width="8.59416" stroke-linecap="round" stroke-linejoin="round"/>
</svg>
