<svg width="288" height="288" viewBox="0 0 288 288" fill="none" xmlns="http://www.w3.org/2000/svg">
<path d="M211.5 18C222.094 18 232.031 19.9688 241.312 23.9062C250.594 27.8438 258.656 33.2813 265.5 40.2188C272.344 47.1562 277.781 55.2656 281.812 64.5469C285.844 73.8281 287.859 83.7656 287.859 94.3594C287.859 99.7969 287.297 105.188 286.172 110.531C285.047 115.875 283.359 121.031 281.109 126H216L189 97.875L144 142.875L81 79.875L36 126H6.89062C4.64062 121.031 2.95312 115.875 1.82812 110.531C0.703125 105.188 0.140625 99.7969 0.140625 94.3594C0.140625 83.7656 2.10938 73.8281 6.04688 64.5469C9.98438 55.2656 15.4219 47.2031 22.3594 40.3594C29.2969 33.5156 37.4062 28.0781 46.6875 24.0469C55.9688 20.0156 65.9062 18 76.5 18C86.7187 18 96.4688 19.9219 105.75 23.7656C115.031 27.6094 123.328 33.1406 130.641 40.3594L144 53.8594L157.359 40.3594C164.578 33.1406 172.828 27.6094 182.109 23.7656C191.391 19.9219 201.187 18 211.5 18ZM198 144H269.719L267.75 146.25C267.094 147 266.391 147.797 265.641 148.641L144 270.141L22.3594 148.641C21.6094 147.891 20.9062 147.141 20.25 146.391C19.5938 145.641 18.9375 144.844 18.2812 144H54L81 118.125L144 181.125L189 136.125L198 144Z" fill="#F2FF58"/>
</svg>
