<svg width="312" height="312" viewBox="0 0 312 312" fill="none" xmlns="http://www.w3.org/2000/svg">
<path d="M213.6 76.1312H213.744M32.16 252.028H156C186.553 252.028 215.855 238.55 237.459 214.559C259.063 190.569 271.2 158.031 271.2 124.103V76.1312C271.232 62.5058 267.346 49.225 260.106 38.2238C252.867 27.2227 242.653 19.0762 230.953 14.9715C219.252 10.8667 206.678 11.0182 195.061 15.4038C183.443 19.7894 173.391 28.18 166.368 39.3529L12 284.009" stroke="#F2FF58" stroke-width="23" stroke-linecap="round" stroke-linejoin="round"/>
<path d="M271.2 76.1318L300 84.1271L271.2 92.1224M127.2 252.028V300M184.8 248.03V300M83.9998 252.028C101.757 252.027 119.082 245.951 133.618 234.626C148.154 223.301 159.195 207.277 165.238 188.736C171.281 170.195 172.033 150.036 167.391 131.004C162.749 111.971 152.939 94.9888 139.296 82.3682" stroke="#F2FF58" stroke-width="23" stroke-linecap="round" stroke-linejoin="round"/>
</svg>
