<svg width="114" height="115" viewBox="0 0 114 115" fill="none" xmlns="http://www.w3.org/2000/svg">
<path d="M99.2531 15.0186V24.4721C99.2531 69.9769 73.8561 90.6472 42.5316 90.6472H24.7731C23.9717 95.3307 23.5873 100.076 23.6245 104.828H14.1709C14.1709 98.385 14.7192 92.5379 15.8064 87.1872C14.7192 81.0707 14.174 72.7705 14.1709 62.2865C14.1709 36.1804 35.3327 15.0186 61.4388 15.0186C70.8924 15.0186 80.346 19.7453 99.2531 15.0186ZM61.4388 24.4721C51.4098 24.4721 41.7916 28.4561 34.7 35.5477C27.6085 42.6393 23.6245 52.2575 23.6245 62.2865C23.6245 63.9976 23.6402 65.6456 23.6717 67.2307C29.5991 57.8811 38.2823 50.4931 49.6407 44.0032L54.3297 52.2089C40.8395 59.9231 31.8869 68.6865 27.2925 81.1936H42.5316C70.9633 81.1936 89.1898 62.4141 89.7854 26.3061C83.3002 26.9348 77.2735 26.533 69.8383 25.4175C64.4025 24.5998 63.3342 24.4721 61.4388 24.4721Z" fill="#F2FF58"/>
</svg>
