<svg width="17" height="17" viewBox="0 0 17 17" fill="none" xmlns="http://www.w3.org/2000/svg">
<path d="M8.4643 2.13379C4.74009 2.13379 1.71021 5.16368 1.71021 8.88788C1.71021 12.6121 4.74009 15.642 8.4643 15.642C12.1885 15.642 15.2184 12.6121 15.2184 8.88788C15.2184 5.16368 12.1885 2.13379 8.4643 2.13379ZM8.4643 14.2912C5.48507 14.2912 3.06102 11.8671 3.06102 8.88788C3.06102 5.90865 5.48507 3.48461 8.4643 3.48461C11.4435 3.48461 13.8676 5.90865 13.8676 8.88788C13.8676 11.8671 11.4435 14.2912 8.4643 14.2912Z" fill="white"/>
<path d="M9.13964 5.51074H7.78882V9.5632H11.8413V8.21238H9.13964V5.51074Z" fill="white"/>
</svg>
